<svg xmlns="http://www.w3.org/2000/svg" viewBox="0 0 64 64">
  <!-- Background Circle -->
  <circle cx="32" cy="32" r="30" fill="#457b9d"/>
  
  <!-- Guitar Neck - Changed from brown to dark gray -->
  <rect x="14" y="16" width="36" height="32" rx="2" ry="2" fill="#444444"/>
  
  <!-- Guitar Fretboard - Changed from dark brown to black -->
  <rect x="18" y="20" width="28" height="24" fill="#222222"/>
  
  <!-- Fret Lines -->
  <line x1="18" y1="26" x2="46" y2="26" stroke="#888888" stroke-width="1"/>
  <line x1="18" y1="32" x2="46" y2="32" stroke="#888888" stroke-width="1"/>
  <line x1="18" y1="38" x2="46" y2="38" stroke="#888888" stroke-width="1"/>
  
  <!-- Guitar Strings -->
  <line x1="18" y1="22" x2="46" y2="22" stroke="#e6e6e6" stroke-width="0.8"/>
  <line x1="18" y1="27" x2="46" y2="27" stroke="#e6e6e6" stroke-width="0.8"/>
  <line x1="18" y1="32" x2="46" y2="32" stroke="#e6e6e6" stroke-width="0.8"/>
  <line x1="18" y1="37" x2="46" y2="37" stroke="#e6e6e6" stroke-width="0.8"/>
  <line x1="18" y1="42" x2="46" y2="42" stroke="#e6e6e6" stroke-width="0.8"/>
  
  <!-- Highlighted Scale Notes (Pentatonic Pattern) -->
  <circle cx="25" cy="22" r="3" fill="#e63946"/>  <!-- Root note -->
  <circle cx="35" cy="27" r="3" fill="#64b5f6"/>
  <circle cx="25" cy="32" r="3" fill="#64b5f6"/>
  <circle cx="40" cy="37" r="3" fill="#64b5f6"/>
  <circle cx="30" cy="42" r="3" fill="#e63946"/>  <!-- Root note -->
</svg>